<svg id="svg" version="1.1" xmlns="http://www.w3.org/2000/svg" xmlns:xlink="http://www.w3.org/1999/xlink" width="400" height="405.0632911392405" viewBox="0, 0, 400,405.0632911392405"><g id="svgg"><path id="path0" d="M46.128 158.093 C 45.699 158.757,45.488 248.600,45.911 250.638 L 46.235 252.200 55.167 252.308 C 61.320 252.382,64.267 252.276,64.639 251.968 C 65.077 251.604,65.200 247.653,65.289 231.127 C 65.396 211.471,65.428 210.715,66.176 210.168 C 67.642 209.096,100.051 209.351,101.038 210.442 C 101.761 211.240,101.810 212.339,102.000 231.742 L 102.200 252.200 110.800 252.313 C 115.530 252.375,119.806 252.327,120.302 252.205 L 121.203 251.984 121.102 204.892 L 121.000 157.800 111.600 157.800 L 102.200 157.800 102.000 174.936 L 101.800 192.071 100.856 192.836 C 99.595 193.856,67.552 194.038,66.176 193.033 C 65.434 192.490,65.391 191.704,65.200 175.133 L 65.000 157.800 55.728 157.693 C 48.583 157.610,46.381 157.702,46.128 158.093 M132.176 157.840 C 131.473 158.132,132.323 163.952,133.368 166.000 C 133.873 166.990,134.496 169.230,134.752 170.979 C 135.009 172.727,135.457 174.437,135.748 174.779 C 136.505 175.666,136.767 176.547,137.217 179.723 C 137.436 181.268,137.979 183.118,138.422 183.836 C 138.866 184.554,139.482 186.704,139.791 188.613 C 140.102 190.534,140.642 192.405,141.000 192.800 C 141.356 193.193,141.892 195.032,142.193 196.886 C 142.493 198.740,143.105 200.964,143.553 201.829 C 144.002 202.693,144.573 204.750,144.823 206.400 C 145.073 208.050,145.607 209.940,146.009 210.600 C 146.411 211.260,147.008 213.339,147.336 215.219 C 147.663 217.100,148.293 219.260,148.734 220.019 C 149.175 220.779,149.659 222.480,149.808 223.800 C 149.958 225.120,150.507 227.123,151.029 228.252 C 151.551 229.380,152.180 231.609,152.428 233.204 C 152.675 234.799,153.285 236.869,153.782 237.804 C 154.279 238.739,154.815 240.651,154.974 242.052 C 155.132 243.454,155.622 245.241,156.062 246.024 C 156.502 246.808,157.073 248.518,157.331 249.824 L 157.800 252.200 166.750 252.308 C 177.049 252.432,176.601 252.586,176.918 248.812 C 177.046 247.279,177.515 245.202,177.961 244.196 C 178.437 243.119,178.956 240.604,179.222 238.083 C 179.481 235.628,180.010 233.032,180.463 232.000 C 180.901 231.002,181.497 228.150,181.800 225.600 C 182.103 223.056,182.700 220.196,183.136 219.200 C 183.579 218.190,184.119 215.579,184.366 213.249 C 184.622 210.845,185.149 208.326,185.620 207.263 C 186.106 206.163,186.601 203.738,186.854 201.214 C 187.086 198.896,187.545 196.280,187.874 195.400 C 188.203 194.520,188.782 192.270,189.161 190.400 C 190.506 183.768,191.985 183.702,192.985 190.230 C 193.286 192.194,193.828 194.495,194.190 195.344 C 194.552 196.194,195.095 198.984,195.397 201.544 C 195.708 204.171,196.293 206.985,196.740 208.000 C 197.208 209.061,197.705 211.529,197.951 214.014 C 198.203 216.551,198.692 218.958,199.180 220.063 C 199.651 221.126,200.178 223.645,200.434 226.049 C 200.681 228.379,201.221 230.990,201.664 232.000 C 202.106 233.008,202.696 235.858,203.005 238.479 C 203.309 241.052,203.859 243.741,204.228 244.454 C 204.596 245.166,205.104 247.201,205.356 248.975 L 205.815 252.200 215.194 252.200 L 224.573 252.200 225.130 250.200 C 225.436 249.100,225.925 247.929,226.216 247.598 C 226.508 247.267,227.008 245.377,227.327 243.398 C 227.646 241.419,228.273 239.170,228.721 238.400 C 229.170 237.630,229.658 235.920,229.807 234.600 C 229.957 233.280,230.514 231.227,231.045 230.039 C 231.577 228.850,232.210 226.603,232.451 225.045 C 232.693 223.486,233.304 221.399,233.808 220.406 C 234.313 219.413,234.846 217.520,234.994 216.200 C 235.141 214.880,235.679 212.900,236.189 211.800 C 236.700 210.700,237.323 208.460,237.574 206.822 C 237.826 205.184,238.369 203.294,238.781 202.622 C 239.193 201.950,239.652 200.500,239.801 199.400 C 240.205 196.425,240.806 194.277,241.428 193.579 C 241.732 193.237,242.191 191.527,242.448 189.779 C 242.704 188.030,243.327 185.790,243.833 184.800 C 244.339 183.810,244.929 181.688,245.145 180.085 C 245.362 178.482,245.917 176.529,246.379 175.746 C 246.847 174.952,247.404 172.969,247.638 171.261 C 247.868 169.578,248.413 167.589,248.848 166.843 C 249.859 165.111,250.930 158.334,250.262 157.902 C 250.008 157.738,245.570 157.648,240.400 157.702 L 231.000 157.800 230.692 160.594 C 230.522 162.130,230.031 164.063,229.600 164.889 C 229.157 165.739,228.625 168.000,228.374 170.096 C 228.131 172.133,227.570 174.610,227.128 175.600 C 226.686 176.590,226.077 179.242,225.774 181.493 C 225.471 183.745,224.872 186.276,224.442 187.117 C 223.995 187.993,223.486 190.219,223.251 192.320 C 223.026 194.341,222.461 196.847,221.995 197.895 C 221.529 198.943,220.982 201.240,220.778 203.000 C 220.371 206.518,219.859 208.606,219.211 209.386 C 218.979 209.666,218.547 211.863,218.251 214.269 C 217.366 221.457,216.672 221.940,214.381 216.958 C 213.043 214.049,212.702 212.737,212.176 208.472 C 211.834 205.697,211.408 203.241,211.229 203.014 C 210.566 202.170,209.999 199.695,209.616 195.975 C 209.395 193.837,208.868 191.351,208.419 190.337 C 207.974 189.330,207.427 186.762,207.189 184.562 C 206.711 180.142,206.589 179.560,205.748 177.697 C 205.425 176.981,204.891 174.217,204.563 171.557 C 204.234 168.896,203.699 166.313,203.375 165.817 C 203.050 165.321,202.553 163.315,202.270 161.358 L 201.757 157.800 191.268 157.693 C 183.088 157.610,180.741 157.698,180.601 158.093 C 180.503 158.372,180.240 160.107,180.016 161.948 C 179.793 163.790,179.324 165.860,178.974 166.548 C 178.625 167.237,178.077 170.012,177.757 172.716 C 177.438 175.419,176.815 178.548,176.373 179.669 C 175.925 180.804,175.395 183.554,175.174 185.878 C 174.957 188.172,174.498 190.803,174.155 191.725 C 173.289 194.051,172.898 196.003,172.436 200.322 C 172.216 202.369,171.773 204.572,171.451 205.218 C 170.696 206.731,170.500 207.743,170.022 212.600 C 169.364 219.289,168.668 220.322,166.492 217.843 C 165.175 216.343,164.623 214.407,163.987 209.050 C 163.755 207.097,163.219 204.821,162.796 203.992 C 162.372 203.161,161.826 200.803,161.579 198.742 C 161.333 196.684,160.777 194.190,160.343 193.200 C 159.909 192.210,159.294 189.548,158.975 187.283 C 158.657 185.019,158.126 182.753,157.795 182.248 C 157.463 181.742,156.910 179.365,156.565 176.964 C 156.219 174.564,155.585 171.857,155.156 170.948 C 154.726 170.039,154.201 167.699,153.989 165.748 C 153.627 162.426,152.368 158.607,151.404 157.906 C 150.979 157.597,132.909 157.535,132.176 157.840 M328.723 160.057 C 327.835 160.382,327.569 160.825,327.204 162.581 C 326.961 163.752,326.417 165.022,325.996 165.404 C 325.575 165.785,325.040 166.674,324.807 167.379 C 324.303 168.906,320.586 172.243,318.950 172.636 C 318.318 172.789,317.063 173.338,316.163 173.858 C 314.770 174.661,313.714 174.850,309.072 175.125 C 302.506 175.514,303.118 174.941,302.887 180.925 L 302.697 185.861 303.803 186.731 C 304.862 187.564,305.277 187.600,313.784 187.600 L 322.661 187.600 323.630 188.632 L 324.600 189.664 324.800 220.932 L 325.000 252.200 334.200 252.200 L 343.400 252.200 343.510 206.800 C 343.570 181.830,343.522 160.995,343.402 160.500 C 343.162 159.507,331.212 159.146,328.723 160.057 M254.700 207.476 C 254.315 207.576,253.895 208.078,253.767 208.591 C 253.367 210.183,253.764 223.525,254.224 223.985 C 254.513 224.273,260.319 224.375,272.424 224.304 L 290.200 224.200 290.308 216.093 L 290.417 207.987 289.382 207.593 C 288.364 207.206,256.149 207.097,254.700 207.476 " stroke="none" fill="#060707" fill-rule="evenodd"></path><path id="path1" d="M0.000 202.400 L 0.000 404.800 200.000 404.800 L 400.000 404.800 400.000 202.400 L 400.000 0.000 200.000 0.000 L 0.000 0.000 0.000 202.400 M65.824 156.568 C 66.568 157.112,66.605 157.840,66.712 174.372 L 66.825 191.609 83.512 191.504 L 100.200 191.400 100.400 174.267 C 100.593 157.717,100.627 157.115,101.400 156.549 C 102.967 155.402,121.662 155.941,122.970 157.171 L 124.003 158.143 123.902 205.128 L 123.800 252.114 122.671 252.957 C 120.987 254.214,101.882 254.273,100.968 253.024 C 100.496 252.378,100.400 248.989,100.400 232.956 C 100.400 222.346,100.291 213.381,100.157 213.033 C 99.941 212.470,98.087 212.400,83.368 212.400 L 66.822 212.400 66.711 232.386 C 66.608 250.953,66.549 252.423,65.886 253.086 C 64.798 254.173,45.947 254.172,44.347 253.085 C 42.765 252.010,42.800 253.117,42.800 204.576 C 42.800 157.028,42.775 157.672,44.682 156.638 C 46.279 155.772,64.651 155.711,65.824 156.568 M153.983 157.004 C 154.594 157.616,154.876 158.676,155.161 161.427 C 155.409 163.819,155.816 165.520,156.363 166.447 C 156.926 167.402,157.321 169.109,157.599 171.793 C 157.876 174.460,158.321 176.395,158.975 177.769 C 159.633 179.149,160.032 180.890,160.221 183.200 C 160.412 185.535,160.789 187.164,161.423 188.400 C 162.079 189.678,162.465 191.408,162.752 194.363 C 162.974 196.652,163.319 198.632,163.518 198.763 C 164.366 199.318,164.836 201.020,165.234 204.972 C 165.637 208.973,165.723 209.243,167.012 210.532 L 168.368 211.888 168.561 210.244 C 168.667 209.340,168.932 206.950,169.151 204.934 C 169.379 202.835,169.881 200.612,170.325 199.734 C 170.857 198.681,171.237 196.649,171.536 193.258 C 171.860 189.565,172.178 187.965,172.792 186.924 C 173.411 185.874,173.711 184.337,174.010 180.674 C 174.296 177.175,174.636 175.367,175.226 174.208 C 175.779 173.124,176.169 171.232,176.423 168.400 C 176.829 163.878,177.365 161.471,178.245 160.214 C 178.550 159.779,178.800 159.052,178.800 158.600 C 178.800 156.038,178.978 156.000,191.023 156.000 C 202.932 156.000,203.600 156.126,203.600 158.377 C 203.600 158.805,203.974 159.788,204.430 160.562 C 205.030 161.578,205.370 163.168,205.654 166.285 C 205.928 169.299,206.341 171.279,207.024 172.852 C 207.723 174.463,208.071 176.172,208.246 178.852 C 208.422 181.559,208.754 183.174,209.440 184.665 C 210.138 186.182,210.500 187.982,210.804 191.443 C 211.060 194.364,211.428 196.392,211.771 196.778 C 212.545 197.646,213.080 200.020,213.399 204.000 C 213.579 206.237,213.989 208.084,214.599 209.400 C 215.108 210.500,215.646 211.985,215.794 212.700 C 216.273 215.013,216.719 214.087,217.013 210.169 C 217.226 207.324,217.546 205.858,218.259 204.469 C 218.936 203.150,219.330 201.457,219.598 198.713 C 219.867 195.970,220.264 194.263,220.947 192.913 C 221.645 191.536,221.982 190.052,222.152 187.618 C 222.319 185.221,222.672 183.648,223.363 182.218 C 224.032 180.833,224.469 178.950,224.754 176.219 C 225.059 173.297,225.388 171.942,225.994 171.123 C 226.607 170.294,226.914 168.999,227.193 166.072 C 227.570 162.121,228.024 160.280,228.730 159.843 C 228.939 159.714,229.227 158.979,229.372 158.209 C 229.785 156.007,230.180 155.938,241.578 156.076 C 251.236 156.192,251.975 156.252,252.795 156.995 C 253.840 157.942,253.672 160.165,252.422 161.929 C 251.955 162.587,251.498 164.285,251.235 166.332 C 250.950 168.558,250.526 170.062,249.957 170.861 C 249.393 171.653,248.993 173.054,248.774 175.016 C 248.458 177.828,247.903 179.523,247.130 180.030 C 246.937 180.156,246.529 181.937,246.223 183.987 C 245.876 186.308,245.376 188.108,244.897 188.757 C 244.408 189.419,243.971 191.024,243.700 193.152 C 243.419 195.362,242.997 196.878,242.463 197.601 C 241.938 198.311,241.493 199.877,241.201 202.048 C 240.883 204.406,240.460 205.822,239.775 206.822 C 239.239 207.603,238.800 208.794,238.800 209.467 C 238.800 211.665,238.036 214.783,237.224 215.903 C 236.713 216.607,236.291 218.132,236.045 220.159 C 235.794 222.234,235.383 223.696,234.849 224.419 C 234.309 225.150,233.894 226.644,233.617 228.860 C 233.343 231.052,232.924 232.573,232.398 233.287 C 231.905 233.954,231.431 235.556,231.170 237.434 C 230.712 240.725,230.250 242.249,229.420 243.199 C 229.132 243.530,228.772 244.880,228.621 246.200 C 228.190 249.963,227.707 251.348,226.381 252.619 L 225.149 253.800 216.275 253.924 C 205.831 254.070,204.924 253.960,204.333 252.478 C 204.096 251.885,203.547 250.715,203.113 249.877 C 202.573 248.837,202.200 246.935,201.934 243.877 C 201.650 240.599,201.292 238.864,200.598 237.400 C 199.916 235.960,199.538 234.167,199.250 231.000 C 198.971 227.947,198.591 226.095,198.007 224.950 C 197.409 223.776,197.063 222.035,196.810 218.918 C 196.541 215.619,196.242 214.177,195.596 213.083 C 194.966 212.015,194.635 210.488,194.346 207.315 C 194.073 204.313,193.658 202.319,192.983 200.764 C 192.271 199.122,191.941 197.443,191.745 194.450 C 191.522 191.049,190.816 188.251,190.793 190.676 C 190.763 193.830,189.882 199.134,189.195 200.298 C 188.626 201.262,188.288 202.912,188.010 206.088 C 187.737 209.191,187.369 211.021,186.786 212.164 C 186.210 213.293,185.827 215.163,185.550 218.200 C 185.262 221.367,184.884 223.160,184.202 224.600 C 183.507 226.067,183.150 227.801,182.863 231.106 C 182.578 234.385,182.250 235.988,181.660 236.988 C 181.073 237.984,180.729 239.650,180.415 243.019 C 180.145 245.916,179.723 248.152,179.298 248.937 C 178.921 249.632,178.425 250.827,178.196 251.594 C 177.524 253.834,176.818 253.988,167.126 253.994 C 157.961 254.000,156.644 253.800,156.178 252.331 C 156.018 251.827,155.545 250.952,155.126 250.385 C 154.687 249.792,154.131 247.914,153.814 245.954 C 153.511 244.084,152.888 241.917,152.430 241.141 C 151.950 240.327,151.432 238.427,151.208 236.661 C 150.960 234.710,150.525 233.194,150.012 232.496 C 149.489 231.786,149.045 230.209,148.752 228.015 C 148.463 225.861,148.014 224.245,147.514 223.569 C 147.037 222.924,146.530 221.190,146.223 219.154 C 145.933 217.227,145.351 215.188,144.855 214.361 C 144.320 213.468,143.836 211.670,143.580 209.626 C 143.301 207.404,142.923 206.070,142.421 205.531 C 141.661 204.715,141.441 203.885,140.950 200.000 C 140.798 198.790,140.333 197.339,139.917 196.776 C 139.467 196.166,138.917 194.229,138.555 191.984 C 138.222 189.911,137.807 188.122,137.634 188.008 C 136.898 187.521,136.337 185.785,136.029 183.039 C 135.809 181.078,135.418 179.720,134.852 178.951 C 134.284 178.180,133.855 176.683,133.552 174.415 C 133.263 172.261,132.814 170.645,132.314 169.969 C 131.828 169.312,131.335 167.593,131.020 165.462 C 130.740 163.566,130.299 161.760,130.039 161.447 C 128.490 159.580,128.725 157.376,130.560 156.559 C 132.777 155.571,152.934 155.955,153.983 157.004 M343.979 157.670 C 344.425 158.149,344.889 159.094,345.010 159.770 C 345.524 162.642,345.014 252.746,344.480 253.280 C 343.728 254.033,324.674 254.033,323.921 253.280 C 323.506 252.866,323.359 246.459,323.200 221.680 L 323.000 190.600 312.865 190.400 L 302.730 190.200 301.765 189.078 C 300.750 187.897,300.254 176.281,301.157 174.855 C 301.586 174.179,304.263 173.640,307.312 173.617 C 308.811 173.606,310.429 173.264,311.912 172.645 C 313.170 172.119,315.136 171.564,316.280 171.410 C 317.424 171.256,318.583 170.861,318.857 170.531 C 319.130 170.202,320.115 169.409,321.045 168.769 C 322.200 167.975,322.889 167.129,323.216 166.103 C 323.480 165.276,324.106 164.150,324.607 163.600 C 325.108 163.050,325.648 161.799,325.807 160.821 C 325.994 159.673,326.495 158.643,327.218 157.921 L 328.338 156.800 335.754 156.800 C 342.853 156.800,343.203 156.837,343.979 157.670 M290.856 205.164 C 292.292 206.326,292.577 224.165,291.177 225.299 C 290.258 226.043,254.463 226.409,253.325 225.686 C 251.144 224.299,251.469 206.577,253.705 205.012 C 255.199 203.965,289.548 204.106,290.856 205.164 " stroke="none" fill="#abf3fb" fill-rule="evenodd"></path><path id="path2" d="M44.682 156.638 C 42.775 157.672,42.800 157.028,42.800 204.576 C 42.800 253.117,42.765 252.010,44.347 253.085 C 45.947 254.172,64.798 254.173,65.886 253.086 C 66.549 252.423,66.608 250.953,66.711 232.386 L 66.822 212.400 83.368 212.400 C 98.087 212.400,99.941 212.470,100.157 213.033 C 100.291 213.381,100.400 222.346,100.400 232.956 C 100.400 248.989,100.496 252.378,100.968 253.024 C 101.882 254.273,120.987 254.214,122.671 252.957 L 123.800 252.114 123.902 205.128 L 124.003 158.143 122.970 157.171 C 121.662 155.941,102.967 155.402,101.400 156.549 C 100.627 157.115,100.593 157.717,100.400 174.267 L 100.200 191.400 83.512 191.504 L 66.825 191.609 66.712 174.372 C 66.605 157.840,66.568 157.112,65.824 156.568 C 64.651 155.711,46.279 155.772,44.682 156.638 M130.560 156.559 C 128.725 157.376,128.490 159.580,130.039 161.447 C 130.299 161.760,130.740 163.566,131.020 165.462 C 131.335 167.593,131.828 169.312,132.314 169.969 C 132.814 170.645,133.263 172.261,133.552 174.415 C 133.855 176.683,134.284 178.180,134.852 178.951 C 135.418 179.720,135.809 181.078,136.029 183.039 C 136.337 185.785,136.898 187.521,137.634 188.008 C 137.807 188.122,138.222 189.911,138.555 191.984 C 138.917 194.229,139.467 196.166,139.917 196.776 C 140.333 197.339,140.798 198.790,140.950 200.000 C 141.441 203.885,141.661 204.715,142.421 205.531 C 142.923 206.070,143.301 207.404,143.580 209.626 C 143.836 211.670,144.320 213.468,144.855 214.361 C 145.351 215.188,145.933 217.227,146.223 219.154 C 146.530 221.190,147.037 222.924,147.514 223.569 C 148.014 224.245,148.463 225.861,148.752 228.015 C 149.045 230.209,149.489 231.786,150.012 232.496 C 150.525 233.194,150.960 234.710,151.208 236.661 C 151.432 238.427,151.950 240.327,152.430 241.141 C 152.888 241.917,153.511 244.084,153.814 245.954 C 154.131 247.914,154.687 249.792,155.126 250.385 C 155.545 250.952,156.018 251.827,156.178 252.331 C 156.644 253.800,157.961 254.000,167.126 253.994 C 176.818 253.988,177.524 253.834,178.196 251.594 C 178.425 250.827,178.921 249.632,179.298 248.937 C 179.723 248.152,180.145 245.916,180.415 243.019 C 180.729 239.650,181.073 237.984,181.660 236.988 C 182.250 235.988,182.578 234.385,182.863 231.106 C 183.150 227.801,183.507 226.067,184.202 224.600 C 184.884 223.160,185.262 221.367,185.550 218.200 C 185.827 215.163,186.210 213.293,186.786 212.164 C 187.369 211.021,187.737 209.191,188.010 206.088 C 188.288 202.912,188.626 201.262,189.195 200.298 C 189.882 199.134,190.763 193.830,190.793 190.676 C 190.816 188.251,191.522 191.049,191.745 194.450 C 191.941 197.443,192.271 199.122,192.983 200.764 C 193.658 202.319,194.073 204.313,194.346 207.315 C 194.635 210.488,194.966 212.015,195.596 213.083 C 196.242 214.177,196.541 215.619,196.810 218.918 C 197.063 222.035,197.409 223.776,198.007 224.950 C 198.591 226.095,198.971 227.947,199.250 231.000 C 199.538 234.167,199.916 235.960,200.598 237.400 C 201.292 238.864,201.650 240.599,201.934 243.877 C 202.200 246.935,202.573 248.837,203.113 249.877 C 203.547 250.715,204.096 251.885,204.333 252.478 C 204.924 253.960,205.831 254.070,216.275 253.924 L 225.149 253.800 226.381 252.619 C 227.707 251.348,228.190 249.963,228.621 246.200 C 228.772 244.880,229.132 243.530,229.420 243.199 C 230.250 242.249,230.712 240.725,231.170 237.434 C 231.431 235.556,231.905 233.954,232.398 233.287 C 232.924 232.573,233.343 231.052,233.617 228.860 C 233.894 226.644,234.309 225.150,234.849 224.419 C 235.383 223.696,235.794 222.234,236.045 220.159 C 236.291 218.132,236.713 216.607,237.224 215.903 C 238.036 214.783,238.800 211.665,238.800 209.467 C 238.800 208.794,239.239 207.603,239.775 206.822 C 240.460 205.822,240.883 204.406,241.201 202.048 C 241.493 199.877,241.938 198.311,242.463 197.601 C 242.997 196.878,243.419 195.362,243.700 193.152 C 243.971 191.024,244.408 189.419,244.897 188.757 C 245.376 188.108,245.876 186.308,246.223 183.987 C 246.529 181.937,246.937 180.156,247.130 180.030 C 247.903 179.523,248.458 177.828,248.774 175.016 C 248.993 173.054,249.393 171.653,249.957 170.861 C 250.526 170.062,250.950 168.558,251.235 166.332 C 251.498 164.285,251.955 162.587,252.422 161.929 C 253.672 160.165,253.840 157.942,252.795 156.995 C 251.975 156.252,251.236 156.192,241.578 156.076 C 230.180 155.938,229.785 156.007,229.372 158.209 C 229.227 158.979,228.939 159.714,228.730 159.843 C 228.024 160.280,227.570 162.121,227.193 166.072 C 226.914 168.999,226.607 170.294,225.994 171.123 C 225.388 171.942,225.059 173.297,224.754 176.219 C 224.469 178.950,224.032 180.833,223.363 182.218 C 222.672 183.648,222.319 185.221,222.152 187.618 C 221.982 190.052,221.645 191.536,220.947 192.913 C 220.264 194.263,219.867 195.970,219.598 198.713 C 219.330 201.457,218.936 203.150,218.259 204.469 C 217.546 205.858,217.226 207.324,217.013 210.169 C 216.719 214.087,216.273 215.013,215.794 212.700 C 215.646 211.985,215.108 210.500,214.599 209.400 C 213.989 208.084,213.579 206.237,213.399 204.000 C 213.080 200.020,212.545 197.646,211.771 196.778 C 211.428 196.392,211.060 194.364,210.804 191.443 C 210.500 187.982,210.138 186.182,209.440 184.665 C 208.754 183.174,208.422 181.559,208.246 178.852 C 208.071 176.172,207.723 174.463,207.024 172.852 C 206.341 171.279,205.928 169.299,205.654 166.285 C 205.370 163.168,205.030 161.578,204.430 160.562 C 203.974 159.788,203.600 158.805,203.600 158.377 C 203.600 156.126,202.932 156.000,191.023 156.000 C 178.978 156.000,178.800 156.038,178.800 158.600 C 178.800 159.052,178.550 159.779,178.245 160.214 C 177.365 161.471,176.829 163.878,176.423 168.400 C 176.169 171.232,175.779 173.124,175.226 174.208 C 174.636 175.367,174.296 177.175,174.010 180.674 C 173.711 184.337,173.411 185.874,172.792 186.924 C 172.178 187.965,171.860 189.565,171.536 193.258 C 171.237 196.649,170.857 198.681,170.325 199.734 C 169.881 200.612,169.379 202.835,169.151 204.934 C 168.932 206.950,168.667 209.340,168.561 210.244 L 168.368 211.888 167.012 210.532 C 165.723 209.243,165.637 208.973,165.234 204.972 C 164.836 201.020,164.366 199.318,163.518 198.763 C 163.319 198.632,162.974 196.652,162.752 194.363 C 162.465 191.408,162.079 189.678,161.423 188.400 C 160.789 187.164,160.412 185.535,160.221 183.200 C 160.032 180.890,159.633 179.149,158.975 177.769 C 158.321 176.395,157.876 174.460,157.599 171.793 C 157.321 169.109,156.926 167.402,156.363 166.447 C 155.816 165.520,155.409 163.819,155.161 161.427 C 154.589 155.901,155.348 156.220,142.490 156.103 C 134.097 156.027,131.534 156.125,130.560 156.559 M65.339 157.149 C 65.934 157.643,66.000 159.353,66.000 174.275 C 66.000 184.938,66.148 191.129,66.414 191.626 C 66.925 192.581,99.378 192.862,100.320 191.920 C 100.678 191.562,100.800 187.191,100.800 174.720 C 100.800 158.395,100.819 157.981,101.620 157.180 C 102.793 156.007,120.700 156.126,121.886 157.314 C 123.037 158.467,122.990 251.085,121.838 252.358 C 120.785 253.521,102.500 253.684,101.549 252.539 C 101.106 252.005,100.961 247.995,100.800 231.724 C 100.628 214.393,100.516 211.517,100.000 211.191 C 98.815 210.443,67.383 210.698,66.749 211.461 C 66.306 211.995,66.161 216.005,66.000 232.276 C 65.828 249.607,65.716 252.483,65.200 252.809 C 64.098 253.505,46.318 253.298,45.289 252.577 L 44.400 251.955 44.400 205.006 L 44.400 158.058 45.480 157.209 C 46.830 156.147,64.071 156.095,65.339 157.149 M152.225 157.039 C 153.782 157.777,153.806 157.836,154.778 163.283 C 155.182 165.547,155.789 168.128,156.126 169.018 C 156.463 169.907,156.945 172.135,157.196 173.969 C 157.447 175.803,158.008 178.205,158.442 179.307 C 158.877 180.409,159.426 182.771,159.663 184.555 C 159.899 186.340,160.436 188.700,160.854 189.800 C 161.273 190.900,161.890 193.510,162.226 195.600 C 162.562 197.690,163.176 200.319,163.591 201.443 C 164.007 202.567,164.541 204.907,164.780 206.643 C 165.367 210.922,165.600 211.610,167.060 213.367 C 168.580 215.198,168.548 215.261,169.392 208.857 C 169.721 206.367,170.340 203.196,170.768 201.810 C 171.196 200.424,171.735 197.593,171.967 195.517 C 172.198 193.441,172.753 190.599,173.200 189.200 C 173.647 187.801,174.202 184.955,174.434 182.874 C 174.666 180.793,175.201 177.991,175.622 176.646 C 176.043 175.300,176.574 172.670,176.801 170.800 C 177.028 168.930,177.654 165.690,178.192 163.600 C 178.730 161.510,179.268 159.318,179.386 158.728 C 179.850 156.415,179.926 156.400,191.167 156.400 C 202.549 156.400,202.421 156.372,203.004 159.000 C 203.151 159.660,203.611 161.280,204.028 162.600 C 204.445 163.920,205.048 166.890,205.370 169.200 C 205.692 171.510,206.240 174.082,206.589 174.916 C 206.938 175.749,207.480 178.359,207.794 180.716 C 208.107 183.072,208.718 186.024,209.152 187.276 C 209.586 188.528,210.151 191.318,210.408 193.476 C 210.665 195.634,211.148 198.030,211.481 198.800 C 211.814 199.570,212.411 202.394,212.807 205.076 C 213.400 209.083,215.314 215.545,216.270 216.767 C 216.601 217.191,216.844 216.228,217.396 212.292 C 217.724 209.959,218.342 207.163,218.770 206.077 C 219.198 204.991,219.749 202.634,219.995 200.839 C 220.240 199.043,220.862 196.275,221.377 194.687 C 221.891 193.099,222.443 190.646,222.603 189.236 C 222.763 187.826,223.301 185.486,223.800 184.036 C 224.298 182.586,224.922 179.876,225.187 178.013 C 225.452 176.151,225.924 174.133,226.236 173.530 C 226.548 172.927,227.160 170.401,227.595 167.917 C 228.031 165.432,228.744 162.410,229.180 161.200 C 229.617 159.990,229.980 158.695,229.987 158.323 C 230.020 156.606,245.952 155.359,250.200 156.740 C 252.346 157.438,252.558 157.774,252.035 159.650 C 251.766 160.613,251.209 162.990,250.795 164.933 C 250.382 166.876,249.845 168.705,249.601 168.999 C 249.357 169.292,248.811 171.259,248.386 173.369 C 247.962 175.480,247.354 177.610,247.035 178.103 C 246.717 178.596,246.177 180.488,245.835 182.306 C 245.494 184.124,244.928 186.165,244.579 186.841 C 244.229 187.518,243.666 189.540,243.328 191.336 C 242.989 193.131,242.379 195.255,241.971 196.055 C 241.563 196.855,241.033 198.742,240.792 200.248 C 240.552 201.754,239.992 203.800,239.548 204.793 C 239.104 205.787,238.495 207.981,238.195 209.668 C 237.894 211.356,237.301 213.426,236.876 214.268 C 236.451 215.111,235.888 217.050,235.626 218.577 C 235.364 220.105,234.812 222.095,234.400 223.000 C 233.988 223.905,233.436 225.895,233.174 227.423 C 232.912 228.950,232.373 230.842,231.978 231.627 C 231.582 232.411,230.979 234.529,230.637 236.332 C 230.295 238.136,229.728 240.165,229.379 240.841 C 229.029 241.518,228.466 243.540,228.127 245.336 C 227.536 248.471,225.985 252.279,225.048 252.894 C 224.801 253.056,220.335 253.191,215.123 253.194 C 204.820 253.201,204.400 253.103,204.400 250.701 C 204.400 250.304,204.038 248.951,203.596 247.694 C 203.155 246.437,202.598 243.786,202.361 241.804 C 202.123 239.822,201.577 237.148,201.147 235.863 C 200.718 234.577,200.087 231.517,199.746 229.063 C 199.405 226.608,198.863 223.970,198.541 223.200 C 198.220 222.430,197.616 219.550,197.200 216.800 C 196.784 214.050,196.172 211.150,195.840 210.357 C 195.508 209.563,195.043 207.313,194.806 205.357 C 194.569 203.400,193.946 200.270,193.420 198.400 C 192.895 196.530,192.350 193.858,192.208 192.463 C 192.067 191.067,191.764 189.447,191.535 188.863 L 191.118 187.800 190.745 188.773 C 190.539 189.309,190.189 191.109,189.966 192.773 C 189.742 194.438,189.227 196.790,188.821 198.000 C 188.415 199.210,187.865 201.910,187.600 204.000 C 187.335 206.090,186.780 208.790,186.367 210.000 C 185.955 211.210,185.350 214.122,185.022 216.472 C 184.695 218.821,184.077 221.791,183.650 223.072 C 183.222 224.352,182.677 227.022,182.439 229.004 C 182.202 230.986,181.652 233.618,181.218 234.853 C 180.784 236.088,180.226 238.786,179.977 240.849 C 179.729 242.912,179.201 245.533,178.803 246.673 C 178.405 247.814,177.955 249.482,177.803 250.381 C 177.321 253.233,177.445 253.200,167.103 253.200 C 157.343 253.200,156.416 253.030,156.391 251.238 C 156.386 250.887,156.015 249.790,155.566 248.800 C 155.116 247.810,154.502 245.711,154.200 244.135 C 153.899 242.559,153.302 240.489,152.874 239.535 C 152.446 238.581,151.884 236.558,151.626 235.041 C 151.367 233.523,150.826 231.633,150.422 230.841 C 150.018 230.048,149.411 227.931,149.072 226.136 C 148.734 224.340,148.171 222.318,147.821 221.641 C 147.472 220.965,146.906 218.924,146.565 217.106 C 146.223 215.288,145.674 213.383,145.345 212.873 C 145.015 212.363,144.468 210.473,144.129 208.673 C 143.790 206.873,143.179 204.745,142.771 203.945 C 142.363 203.145,141.833 201.258,141.592 199.752 C 141.352 198.246,140.794 196.200,140.353 195.207 C 139.911 194.213,139.279 191.960,138.947 190.200 C 138.615 188.440,138.074 186.583,137.745 186.073 C 137.415 185.563,136.868 183.673,136.529 181.873 C 136.190 180.073,135.587 177.960,135.188 177.178 C 134.790 176.396,134.266 174.596,134.024 173.178 C 133.782 171.760,133.157 169.430,132.635 168.000 C 132.113 166.570,131.333 163.716,130.902 161.658 L 130.118 157.916 131.359 157.160 C 133.090 156.104,150.048 156.006,152.225 157.039 M327.218 157.921 C 326.495 158.643,325.994 159.673,325.807 160.821 C 325.648 161.799,325.108 163.050,324.607 163.600 C 324.106 164.150,323.480 165.276,323.216 166.103 C 322.889 167.129,322.200 167.975,321.045 168.769 C 320.115 169.409,319.130 170.202,318.857 170.531 C 318.583 170.861,317.424 171.256,316.280 171.410 C 315.136 171.564,313.170 172.119,311.912 172.645 C 310.429 173.264,308.811 173.606,307.312 173.617 C 304.263 173.640,301.586 174.179,301.157 174.855 C 300.254 176.281,300.750 187.897,301.765 189.078 L 302.730 190.200 312.865 190.400 L 323.000 190.600 323.200 221.680 C 323.359 246.459,323.506 252.866,323.921 253.280 C 324.674 254.033,343.728 254.033,344.480 253.280 C 345.014 252.746,345.524 162.642,345.010 159.770 C 344.507 156.958,344.015 156.800,335.754 156.800 L 328.338 156.800 327.218 157.921 M343.600 158.800 C 344.582 159.782,344.895 251.745,343.920 252.720 C 343.090 253.550,325.267 253.385,324.331 252.538 C 323.635 251.908,323.600 250.411,323.600 221.218 C 323.600 197.906,323.485 190.445,323.120 190.080 C 322.776 189.736,320.166 189.600,313.907 189.600 C 301.210 189.600,300.928 189.396,301.309 180.461 C 301.562 174.506,301.353 174.745,306.690 174.301 C 311.783 173.877,320.400 171.407,320.400 170.372 C 320.400 170.203,321.012 169.687,321.760 169.225 C 322.619 168.694,323.367 167.762,323.792 166.692 C 324.161 165.762,324.786 164.640,325.179 164.200 C 325.573 163.760,326.015 162.860,326.161 162.200 C 327.045 158.216,327.387 158.073,336.100 158.032 C 342.290 158.002,342.861 158.061,343.600 158.800 M253.705 205.012 C 251.469 206.577,251.144 224.299,253.325 225.686 C 254.463 226.409,290.258 226.043,291.177 225.299 C 292.577 224.165,292.292 206.326,290.856 205.164 C 289.548 204.106,255.199 203.965,253.705 205.012 M290.804 206.900 C 291.912 208.717,292.023 223.269,290.938 224.469 C 290.108 225.386,254.186 225.626,253.280 224.720 C 252.504 223.944,252.617 208.314,253.410 206.780 L 254.021 205.600 272.016 205.600 L 290.012 205.600 290.804 206.900 " stroke="none" fill="#75a0a8" fill-rule="evenodd"></path><path id="path3" d="M45.462 157.531 C 44.854 158.203,44.800 162.081,44.800 205.122 L 44.800 251.982 45.772 252.619 C 47.059 253.462,64.423 253.339,65.281 252.480 C 65.687 252.074,65.843 247.580,66.000 231.800 C 66.133 218.377,66.342 211.497,66.624 211.215 C 66.913 210.927,72.401 210.824,83.806 210.896 L 100.564 211.000 100.842 212.000 C 100.995 212.550,101.138 221.747,101.160 232.438 C 101.198 250.733,101.243 251.915,101.931 252.538 C 102.833 253.354,119.221 253.538,120.947 252.751 C 122.436 252.073,122.389 253.664,122.395 204.323 L 122.400 158.045 121.511 157.423 C 120.355 156.613,102.476 156.484,101.680 157.280 C 101.322 157.638,101.200 161.970,101.200 174.306 C 101.200 184.947,101.052 191.129,100.786 191.626 C 100.275 192.581,67.422 192.862,66.480 191.920 C 66.122 191.562,66.000 187.255,66.000 175.009 C 66.000 160.785,65.916 158.459,65.377 157.689 C 64.492 156.425,46.592 156.283,45.462 157.531 M131.349 157.381 L 130.520 157.961 131.395 162.281 C 131.877 164.656,132.559 167.156,132.912 167.836 C 133.265 168.516,133.766 170.316,134.026 171.836 C 134.285 173.356,134.908 175.590,135.410 176.800 C 135.912 178.010,136.453 179.900,136.611 181.000 C 136.770 182.100,137.304 183.990,137.798 185.200 C 138.293 186.410,138.925 188.660,139.203 190.200 C 139.481 191.740,140.035 193.648,140.433 194.441 C 140.830 195.233,141.368 197.123,141.626 198.641 C 141.885 200.158,142.508 202.390,143.010 203.600 C 143.512 204.810,144.053 206.700,144.211 207.800 C 144.370 208.900,144.911 210.792,145.415 212.005 C 145.918 213.218,146.540 215.378,146.796 216.805 C 147.052 218.232,147.606 220.183,148.026 221.140 C 148.447 222.097,148.995 224.077,149.244 225.540 C 149.493 227.003,150.108 229.190,150.610 230.400 C 151.112 231.610,151.653 233.500,151.811 234.600 C 151.970 235.700,152.504 237.590,152.998 238.800 C 153.493 240.010,154.125 242.260,154.403 243.800 C 154.681 245.340,155.219 247.230,155.598 248.000 C 155.977 248.770,156.416 249.940,156.574 250.600 C 157.197 253.196,157.212 253.200,166.986 253.200 C 177.173 253.200,177.004 253.253,177.619 249.901 C 177.851 248.636,178.289 247.005,178.594 246.276 C 178.899 245.547,179.428 242.982,179.771 240.575 C 180.114 238.169,180.737 235.119,181.156 233.797 C 181.575 232.476,182.116 229.758,182.360 227.757 C 182.603 225.757,183.161 223.076,183.600 221.800 C 184.039 220.524,184.595 217.842,184.836 215.840 C 185.077 213.838,185.615 211.224,186.031 210.031 C 186.447 208.838,187.058 205.928,187.387 203.564 C 187.717 201.201,188.247 198.487,188.565 197.533 C 188.883 196.580,189.429 194.112,189.780 192.049 C 190.863 185.679,191.535 185.823,192.561 192.641 C 192.889 194.819,193.417 197.332,193.735 198.227 C 194.053 199.122,194.533 201.552,194.801 203.627 C 195.070 205.702,195.631 208.480,196.048 209.800 C 196.465 211.120,197.077 214.104,197.409 216.431 C 197.741 218.758,198.353 221.638,198.769 222.831 C 199.185 224.024,199.723 226.638,199.964 228.640 C 200.205 230.642,200.761 233.324,201.200 234.600 C 201.639 235.876,202.195 238.535,202.434 240.508 C 202.674 242.481,203.305 245.545,203.835 247.318 C 204.366 249.091,204.800 250.841,204.800 251.208 C 204.800 253.024,205.730 253.201,215.231 253.187 C 221.783 253.178,224.377 253.040,224.859 252.673 C 225.831 251.934,227.436 247.795,227.974 244.641 C 228.232 243.123,228.770 241.233,229.167 240.441 C 229.565 239.648,230.116 237.740,230.392 236.200 C 230.667 234.660,231.218 232.642,231.617 231.716 C 232.015 230.790,232.644 228.540,233.015 226.716 C 233.385 224.892,233.947 222.897,234.263 222.283 C 234.579 221.669,235.188 219.530,235.615 217.529 C 236.043 215.528,236.576 213.670,236.800 213.400 C 237.024 213.130,237.557 211.272,237.985 209.271 C 238.412 207.270,239.027 205.121,239.351 204.495 C 239.675 203.869,240.220 201.879,240.562 200.073 C 240.905 198.266,241.472 196.235,241.821 195.559 C 242.171 194.882,242.734 192.860,243.072 191.064 C 243.411 189.269,244.005 187.170,244.392 186.400 C 244.780 185.630,245.311 183.754,245.572 182.232 C 245.833 180.710,246.463 178.460,246.970 177.232 C 247.478 176.004,248.014 174.190,248.161 173.200 C 248.307 172.210,248.946 169.780,249.579 167.800 C 253.238 156.358,253.592 156.800,240.778 156.800 C 230.415 156.800,230.000 156.896,230.000 159.299 C 230.000 159.696,229.638 161.050,229.195 162.310 C 228.752 163.569,228.127 166.220,227.805 168.200 C 227.484 170.180,226.871 172.790,226.444 174.000 C 226.017 175.210,225.474 177.594,225.238 179.298 C 225.002 181.001,224.454 183.405,224.020 184.638 C 223.587 185.872,223.022 188.348,222.765 190.141 C 222.509 191.933,221.958 194.300,221.542 195.400 C 221.126 196.500,220.522 199.110,220.200 201.200 C 219.878 203.290,219.272 205.900,218.853 207.000 C 218.434 208.100,217.889 210.530,217.641 212.400 C 217.393 214.270,217.034 216.340,216.843 217.000 L 216.496 218.200 215.506 216.000 C 213.915 212.466,213.253 210.073,212.630 205.600 C 212.309 203.290,211.783 200.770,211.461 200.000 C 211.140 199.230,210.587 196.637,210.231 194.237 C 209.876 191.838,209.234 188.688,208.805 187.237 C 208.376 185.787,207.830 183.109,207.592 181.287 C 207.353 179.464,206.814 176.895,206.393 175.577 C 205.972 174.259,205.418 171.611,205.163 169.692 C 204.908 167.772,204.271 164.775,203.749 163.030 C 203.227 161.286,202.800 159.454,202.800 158.958 C 202.800 156.880,202.370 156.800,191.200 156.800 C 179.441 156.800,179.856 156.685,179.391 160.067 C 179.233 161.215,178.779 163.099,178.381 164.254 C 177.984 165.408,177.454 168.070,177.204 170.168 C 176.953 172.267,176.394 175.202,175.962 176.692 C 175.530 178.181,174.915 181.339,174.597 183.710 C 174.278 186.080,173.663 189.230,173.231 190.710 C 172.798 192.189,172.245 195.020,172.000 197.000 C 171.756 198.980,171.209 201.737,170.783 203.126 C 170.358 204.515,169.816 207.305,169.578 209.326 C 169.340 211.347,168.973 213.669,168.761 214.488 L 168.376 215.975 167.044 214.488 C 165.682 212.965,165.280 211.711,164.398 206.230 C 164.153 204.706,163.685 202.822,163.360 202.041 C 163.034 201.261,162.482 198.818,162.135 196.612 C 161.787 194.405,161.178 191.774,160.783 190.765 C 160.387 189.755,159.846 187.415,159.581 185.565 C 159.315 183.714,158.758 181.300,158.342 180.200 C 157.926 179.100,157.323 176.479,157.003 174.375 C 156.683 172.271,156.132 169.857,155.779 169.010 C 155.425 168.164,154.800 165.475,154.390 163.035 C 153.288 156.475,153.941 156.800,141.867 156.800 C 134.046 156.800,132.018 156.912,131.349 157.381 M65.200 175.133 C 65.391 191.704,65.434 192.490,66.176 193.033 C 67.552 194.038,99.595 193.856,100.856 192.836 L 101.800 192.071 102.000 174.936 L 102.200 157.800 111.600 157.800 L 121.000 157.800 121.102 204.892 L 121.203 251.984 120.302 252.205 C 119.806 252.327,115.530 252.375,110.800 252.313 L 102.200 252.200 102.000 231.742 C 101.810 212.339,101.761 211.240,101.038 210.442 C 100.051 209.351,67.642 209.096,66.176 210.168 C 65.428 210.715,65.396 211.471,65.289 231.127 C 65.200 247.653,65.077 251.604,64.639 251.968 C 64.267 252.276,61.320 252.382,55.167 252.308 L 46.235 252.200 45.911 250.638 C 45.488 248.600,45.699 158.757,46.128 158.093 C 46.381 157.702,48.583 157.610,55.728 157.693 L 65.000 157.800 65.200 175.133 M151.404 157.906 C 152.368 158.607,153.627 162.426,153.989 165.748 C 154.201 167.699,154.726 170.039,155.156 170.948 C 155.585 171.857,156.219 174.564,156.565 176.964 C 156.910 179.365,157.463 181.742,157.795 182.248 C 158.126 182.753,158.657 185.019,158.975 187.283 C 159.294 189.548,159.909 192.210,160.343 193.200 C 160.777 194.190,161.333 196.684,161.579 198.742 C 161.826 200.803,162.372 203.161,162.796 203.992 C 163.219 204.821,163.755 207.097,163.987 209.050 C 164.623 214.407,165.175 216.343,166.492 217.843 C 168.668 220.322,169.364 219.289,170.022 212.600 C 170.500 207.743,170.696 206.731,171.451 205.218 C 171.773 204.572,172.216 202.369,172.436 200.322 C 172.898 196.003,173.289 194.051,174.155 191.725 C 174.498 190.803,174.957 188.172,175.174 185.878 C 175.395 183.554,175.925 180.804,176.373 179.669 C 176.815 178.548,177.438 175.419,177.757 172.716 C 178.077 170.012,178.625 167.237,178.974 166.548 C 179.324 165.860,179.793 163.790,180.016 161.948 C 180.240 160.107,180.503 158.372,180.601 158.093 C 180.741 157.698,183.088 157.610,191.268 157.693 L 201.757 157.800 202.270 161.358 C 202.553 163.315,203.050 165.321,203.375 165.817 C 203.699 166.313,204.234 168.896,204.563 171.557 C 204.891 174.217,205.425 176.981,205.748 177.697 C 206.589 179.560,206.711 180.142,207.189 184.562 C 207.427 186.762,207.974 189.330,208.419 190.337 C 208.868 191.351,209.395 193.837,209.616 195.975 C 209.999 199.695,210.566 202.170,211.229 203.014 C 211.408 203.241,211.834 205.697,212.176 208.472 C 212.702 212.737,213.043 214.049,214.381 216.958 C 216.672 221.940,217.366 221.457,218.251 214.269 C 218.547 211.863,218.979 209.666,219.211 209.386 C 219.859 208.606,220.371 206.518,220.778 203.000 C 220.982 201.240,221.529 198.943,221.995 197.895 C 222.461 196.847,223.026 194.341,223.251 192.320 C 223.486 190.219,223.995 187.993,224.442 187.117 C 224.872 186.276,225.471 183.745,225.774 181.493 C 226.077 179.242,226.686 176.590,227.128 175.600 C 227.570 174.610,228.131 172.133,228.374 170.096 C 228.625 168.000,229.157 165.739,229.600 164.889 C 230.031 164.063,230.522 162.130,230.692 160.594 L 231.000 157.800 240.400 157.702 C 245.570 157.648,250.008 157.738,250.262 157.902 C 250.930 158.334,249.859 165.111,248.848 166.843 C 248.413 167.589,247.868 169.578,247.638 171.261 C 247.404 172.969,246.847 174.952,246.379 175.746 C 245.917 176.529,245.362 178.482,245.145 180.085 C 244.929 181.688,244.339 183.810,243.833 184.800 C 243.327 185.790,242.704 188.030,242.448 189.779 C 242.191 191.527,241.732 193.237,241.428 193.579 C 240.806 194.277,240.205 196.425,239.801 199.400 C 239.652 200.500,239.193 201.950,238.781 202.622 C 238.369 203.294,237.826 205.184,237.574 206.822 C 237.323 208.460,236.700 210.700,236.189 211.800 C 235.679 212.900,235.141 214.880,234.994 216.200 C 234.846 217.520,234.313 219.413,233.808 220.406 C 233.304 221.399,232.693 223.486,232.451 225.045 C 232.210 226.603,231.577 228.850,231.045 230.039 C 230.514 231.227,229.957 233.280,229.807 234.600 C 229.658 235.920,229.170 237.630,228.721 238.400 C 228.273 239.170,227.646 241.419,227.327 243.398 C 227.008 245.377,226.508 247.267,226.216 247.598 C 225.925 247.929,225.436 249.100,225.130 250.200 L 224.573 252.200 215.194 252.200 L 205.815 252.200 205.356 248.975 C 205.104 247.201,204.596 245.166,204.228 244.454 C 203.859 243.741,203.309 241.052,203.005 238.479 C 202.696 235.858,202.106 233.008,201.664 232.000 C 201.221 230.990,200.681 228.379,200.434 226.049 C 200.178 223.645,199.651 221.126,199.180 220.063 C 198.692 218.958,198.203 216.551,197.951 214.014 C 197.705 211.529,197.208 209.061,196.740 208.000 C 196.293 206.985,195.708 204.171,195.397 201.544 C 195.095 198.984,194.552 196.194,194.190 195.344 C 193.828 194.495,193.286 192.194,192.985 190.230 C 191.985 183.702,190.506 183.768,189.161 190.400 C 188.782 192.270,188.203 194.520,187.874 195.400 C 187.545 196.280,187.086 198.896,186.854 201.214 C 186.601 203.738,186.106 206.163,185.620 207.263 C 185.149 208.326,184.622 210.845,184.366 213.249 C 184.119 215.579,183.579 218.190,183.136 219.200 C 182.700 220.196,182.103 223.056,181.800 225.600 C 181.497 228.150,180.901 231.002,180.463 232.000 C 180.010 233.032,179.481 235.628,179.222 238.083 C 178.956 240.604,178.437 243.119,177.961 244.196 C 177.515 245.202,177.046 247.279,176.918 248.812 C 176.601 252.586,177.049 252.432,166.750 252.308 L 157.800 252.200 157.331 249.824 C 157.073 248.518,156.502 246.808,156.062 246.024 C 155.622 245.241,155.132 243.454,154.974 242.052 C 154.815 240.651,154.279 238.739,153.782 237.804 C 153.285 236.869,152.675 234.799,152.428 233.204 C 152.180 231.609,151.551 229.380,151.029 228.252 C 150.507 227.123,149.958 225.120,149.808 223.800 C 149.659 222.480,149.175 220.779,148.734 220.019 C 148.293 219.260,147.663 217.100,147.336 215.219 C 147.008 213.339,146.411 211.260,146.009 210.600 C 145.607 209.940,145.073 208.050,144.823 206.400 C 144.573 204.750,144.002 202.693,143.553 201.829 C 143.105 200.964,142.493 198.740,142.193 196.886 C 141.892 195.032,141.356 193.193,141.000 192.800 C 140.642 192.405,140.102 190.534,139.791 188.613 C 139.482 186.704,138.866 184.554,138.422 183.836 C 137.979 183.118,137.436 181.268,137.217 179.723 C 136.767 176.547,136.505 175.666,135.748 174.779 C 135.457 174.437,135.009 172.727,134.752 170.979 C 134.496 169.230,133.873 166.990,133.368 166.000 C 132.323 163.952,131.473 158.132,132.176 157.840 C 132.909 157.535,150.979 157.597,151.404 157.906 M328.800 158.684 C 327.591 159.128,326.852 160.107,326.601 161.597 C 326.459 162.436,325.910 163.709,325.381 164.426 C 324.852 165.142,324.230 166.302,323.999 167.002 C 323.525 168.439,320.041 171.482,318.436 171.862 C 317.866 171.997,316.355 172.539,315.078 173.068 C 313.549 173.701,311.638 174.098,309.478 174.233 C 301.284 174.744,301.600 174.472,301.600 181.010 C 301.600 189.242,301.536 189.200,314.096 189.200 L 323.072 189.200 323.536 190.219 C 323.875 190.963,324.000 199.400,324.000 221.557 C 324.000 250.422,324.035 251.908,324.731 252.538 C 325.793 253.499,342.147 253.533,343.511 252.577 L 344.400 251.955 344.400 206.066 C 344.400 165.181,344.332 160.081,343.777 159.289 C 343.166 158.416,330.879 157.919,328.800 158.684 M343.402 160.500 C 343.522 160.995,343.570 181.830,343.510 206.800 L 343.400 252.200 334.200 252.200 L 325.000 252.200 324.800 220.932 L 324.600 189.664 323.630 188.632 L 322.661 187.600 313.784 187.600 C 305.277 187.600,304.862 187.564,303.803 186.731 L 302.697 185.861 302.887 180.925 C 303.118 174.941,302.506 175.514,309.072 175.125 C 313.714 174.850,314.770 174.661,316.163 173.858 C 317.063 173.338,318.318 172.789,318.950 172.636 C 320.586 172.243,324.303 168.906,324.807 167.379 C 325.040 166.674,325.575 165.785,325.996 165.404 C 326.417 165.022,326.961 163.752,327.204 162.581 C 327.784 159.786,328.147 159.671,336.492 159.632 C 343.114 159.600,343.187 159.610,343.402 160.500 M253.575 207.300 C 252.554 208.933,252.532 223.315,253.549 224.539 C 254.365 225.521,289.591 225.552,290.571 224.571 C 291.500 223.643,291.505 208.214,290.577 206.889 L 289.955 206.000 272.171 206.000 L 254.388 206.000 253.575 207.300 M289.382 207.593 L 290.417 207.987 290.308 216.093 L 290.200 224.200 272.424 224.304 C 260.319 224.375,254.513 224.273,254.224 223.985 C 253.764 223.525,253.367 210.183,253.767 208.591 C 253.895 208.078,254.315 207.576,254.700 207.476 C 256.149 207.097,288.364 207.206,289.382 207.593 " stroke="none" fill="#54747c" fill-rule="evenodd"></path><path id="path4" d="M50.700 156.699 C 53.175 156.769,57.225 156.769,59.700 156.699 C 62.175 156.628,60.150 156.571,55.200 156.571 C 50.250 156.571,48.225 156.628,50.700 156.699 M106.923 156.699 C 109.520 156.769,113.660 156.768,116.123 156.698 C 118.585 156.628,116.460 156.571,111.400 156.572 C 106.340 156.572,104.325 156.629,106.923 156.699 M137.123 156.699 C 139.831 156.768,144.151 156.768,146.723 156.699 C 149.295 156.629,147.080 156.572,141.800 156.573 C 136.520 156.573,134.415 156.630,137.123 156.699 M180.538 156.706 C 180.284 156.868,184.991 157.000,190.999 157.000 C 197.007 157.000,201.840 156.865,201.738 156.700 C 201.499 156.312,181.148 156.318,180.538 156.706 M236.123 156.699 C 238.720 156.769,242.860 156.768,245.323 156.698 C 247.785 156.628,245.660 156.571,240.600 156.572 C 235.540 156.572,233.525 156.629,236.123 156.699 M45.062 157.531 C 44.010 158.694,44.047 251.635,45.100 252.432 C 45.696 252.882,45.725 252.878,45.300 252.401 C 44.426 251.421,44.585 158.501,45.462 157.531 C 45.826 157.129,46.034 156.800,45.924 156.800 C 45.814 156.800,45.426 157.129,45.062 157.531 M152.340 157.443 C 152.844 157.796,153.413 158.471,153.603 158.943 C 153.870 159.605,153.955 159.644,153.975 159.116 C 154.002 158.390,152.533 156.800,151.836 156.800 C 151.608 156.800,151.835 157.089,152.340 157.443 M251.143 157.445 C 252.076 158.099,252.078 158.136,251.362 161.000 C 251.207 161.621,251.245 161.666,251.535 161.200 C 252.771 159.213,252.277 156.867,250.611 156.813 C 250.397 156.806,250.636 157.090,251.143 157.445 M130.512 157.700 C 130.295 157.983,130.265 158.635,130.445 159.200 L 130.762 160.200 130.693 159.200 C 130.656 158.650,130.765 157.975,130.936 157.700 C 131.107 157.425,131.169 157.200,131.073 157.200 C 130.977 157.200,130.724 157.425,130.512 157.700 M100.983 174.600 C 100.983 183.840,101.036 187.563,101.100 182.873 C 101.164 178.183,101.164 170.623,101.099 166.073 C 101.035 161.523,100.983 165.360,100.983 174.600 M328.334 158.453 C 327.748 158.668,327.156 159.139,327.017 159.499 C 326.815 160.027,326.934 160.003,327.624 159.378 C 328.385 158.687,329.297 158.575,335.741 158.379 L 343.000 158.157 336.200 158.110 C 332.460 158.084,328.920 158.239,328.334 158.453 M122.593 204.800 C 122.593 229.770,122.641 239.985,122.700 227.500 C 122.759 215.015,122.759 194.585,122.700 182.100 C 122.641 169.615,122.593 179.830,122.593 204.800 M178.275 163.275 C 177.883 164.606,177.632 165.765,177.717 165.850 C 177.802 165.935,178.199 164.923,178.600 163.600 C 179.001 162.277,179.252 161.118,179.158 161.025 C 179.065 160.931,178.667 161.944,178.275 163.275 M203.237 161.000 C 203.223 161.220,203.559 162.480,203.984 163.800 C 204.409 165.120,204.753 165.840,204.747 165.400 C 204.737 164.557,203.280 160.312,203.237 161.000 M228.674 162.709 C 228.301 163.749,228.003 164.870,228.011 165.200 C 228.020 165.530,228.390 164.744,228.834 163.454 C 229.278 162.163,229.576 161.042,229.496 160.963 C 229.417 160.883,229.047 161.669,228.674 162.709 M324.829 164.654 C 324.373 165.234,324.005 165.909,324.012 166.154 C 324.019 166.399,324.224 166.240,324.468 165.800 C 324.712 165.360,325.185 164.685,325.518 164.300 C 325.851 163.915,326.019 163.600,325.891 163.600 C 325.763 163.600,325.285 164.074,324.829 164.654 M132.017 166.456 C 132.008 166.597,132.356 167.497,132.791 168.456 C 133.226 169.415,133.579 169.930,133.574 169.600 C 133.567 169.013,132.050 165.951,132.017 166.456 M249.701 167.656 C 249.433 168.366,249.296 169.029,249.396 169.129 C 249.634 169.368,250.461 167.184,250.307 166.722 C 250.242 166.526,249.969 166.946,249.701 167.656 M323.406 167.580 C 323.270 168.009,322.538 168.744,321.779 169.213 C 321.021 169.682,320.400 170.209,320.400 170.384 C 320.400 170.559,319.854 170.929,319.187 171.205 C 318.520 171.482,318.053 171.787,318.150 171.883 C 318.691 172.424,324.000 168.216,324.000 167.246 C 324.000 166.543,323.678 166.725,323.406 167.580 M155.432 168.000 C 155.816 169.452,156.376 170.403,156.374 169.600 C 156.373 169.270,156.101 168.550,155.769 168.000 L 155.167 167.000 155.432 168.000 M176.893 170.800 C 176.893 171.570,176.975 171.885,177.076 171.500 C 177.176 171.115,177.176 170.485,177.076 170.100 C 176.975 169.715,176.893 170.030,176.893 170.800 M313.400 173.236 C 312.300 173.637,311.760 173.968,312.200 173.972 C 312.640 173.976,313.720 173.638,314.600 173.222 C 316.606 172.273,316.024 172.279,313.400 173.236 M226.065 173.817 C 225.809 174.378,225.608 175.144,225.618 175.519 C 225.627 175.893,225.889 175.487,226.200 174.615 C 226.845 172.804,226.759 172.294,226.065 173.817 M206.230 174.800 C 206.362 175.350,206.723 176.700,207.034 177.800 L 207.599 179.800 207.391 178.076 C 207.277 177.128,206.915 175.778,206.587 175.076 C 206.139 174.115,206.051 174.047,206.230 174.800 M307.700 174.287 C 308.305 174.378,309.295 174.378,309.900 174.287 C 310.505 174.195,310.010 174.120,308.800 174.120 C 307.590 174.120,307.095 174.195,307.700 174.287 M134.426 175.200 C 134.433 175.787,135.950 178.849,135.983 178.344 C 135.992 178.203,135.644 177.303,135.209 176.344 C 134.774 175.385,134.421 174.870,134.426 175.200 M175.456 177.115 C 175.095 178.401,174.813 179.711,174.828 180.026 C 174.844 180.342,175.210 179.361,175.642 177.847 C 176.073 176.332,176.356 175.022,176.269 174.936 C 176.182 174.849,175.816 175.830,175.456 177.115 M247.101 176.886 C 246.716 177.793,246.468 178.601,246.549 178.682 C 246.775 178.908,248.071 176.012,247.927 175.600 C 247.857 175.401,247.485 175.979,247.101 176.886 M157.623 177.800 C 157.611 178.020,157.952 179.100,158.382 180.200 C 158.811 181.300,159.161 181.930,159.159 181.600 C 159.155 180.906,157.656 177.199,157.623 177.800 M301.348 182.000 C 301.348 184.310,301.414 185.255,301.495 184.100 C 301.576 182.945,301.576 181.055,301.495 179.900 C 301.414 178.745,301.348 179.690,301.348 182.000 M174.493 182.400 C 174.493 183.170,174.575 183.485,174.676 183.100 C 174.776 182.715,174.776 182.085,174.676 181.700 C 174.575 181.315,174.493 181.630,174.493 182.400 M136.809 183.540 C 136.798 184.199,138.044 186.890,138.259 186.674 C 138.345 186.589,138.055 185.727,137.616 184.760 C 137.177 183.792,136.814 183.243,136.809 183.540 M223.410 185.169 C 223.041 186.280,222.822 187.507,222.923 187.895 C 223.065 188.437,223.118 188.393,223.154 187.708 C 223.179 187.218,223.493 186.085,223.850 185.191 C 224.208 184.298,224.406 183.473,224.291 183.357 C 224.176 183.242,223.780 184.057,223.410 185.169 M244.272 186.619 C 243.902 187.393,243.604 188.246,243.609 188.514 C 243.614 188.781,243.977 188.208,244.416 187.240 C 245.367 185.144,245.239 184.591,244.272 186.619 M208.606 186.400 C 209.138 188.902,209.946 191.321,209.942 190.400 C 209.940 189.850,209.591 188.500,209.166 187.400 C 208.741 186.300,208.490 185.850,208.606 186.400 M301.627 186.526 C 301.422 189.003,303.808 189.600,313.907 189.600 C 320.358 189.600,322.772 189.731,323.144 190.100 C 323.548 190.501,323.595 190.461,323.381 189.900 C 323.138 189.262,322.318 189.200,314.118 189.200 C 304.437 189.200,302.979 188.943,302.079 187.079 C 301.845 186.596,301.642 186.347,301.627 186.526 M173.100 189.471 C 172.151 192.682,172.249 193.599,173.221 190.600 C 173.648 189.280,173.954 187.953,173.899 187.652 C 173.845 187.350,173.485 188.169,173.100 189.471 M190.664 187.777 C 190.281 188.777,190.395 189.549,190.786 188.600 C 191.100 187.838,191.136 187.847,191.533 188.800 C 191.769 189.368,191.960 189.531,191.975 189.176 C 192.020 188.053,190.983 186.946,190.664 187.777 M160.041 188.400 C 160.045 189.094,161.544 192.801,161.577 192.200 C 161.589 191.980,161.248 190.900,160.818 189.800 C 160.389 188.700,160.039 188.070,160.041 188.400 M323.697 221.238 L 323.600 251.876 324.500 252.638 C 325.399 253.399,325.399 253.399,324.703 252.571 C 324.055 251.801,323.998 249.571,323.900 221.171 L 323.795 190.600 323.697 221.238 M189.693 192.800 C 189.693 193.570,189.775 193.885,189.876 193.500 C 189.976 193.115,189.976 192.485,189.876 192.100 C 189.775 191.715,189.693 192.030,189.693 192.800 M210.093 192.800 C 210.093 193.570,210.175 193.885,210.276 193.500 C 210.376 193.115,210.376 192.485,210.276 192.100 C 210.175 191.715,210.093 192.030,210.093 192.800 M221.486 194.284 C 221.093 195.506,220.850 196.583,220.945 196.679 C 221.183 196.916,222.498 192.887,222.333 192.429 C 222.260 192.227,221.879 193.061,221.486 194.284 M139.617 193.256 C 139.608 193.397,139.956 194.297,140.391 195.256 C 140.826 196.215,141.179 196.730,141.174 196.400 C 141.167 195.813,139.650 192.751,139.617 193.256 M172.093 194.400 C 172.093 195.170,172.175 195.485,172.276 195.100 C 172.376 194.715,172.376 194.085,172.276 193.700 C 172.175 193.315,172.093 193.630,172.093 194.400 M192.432 194.022 C 192.414 194.585,192.838 196.475,193.374 198.222 C 193.909 199.970,194.359 201.097,194.374 200.726 C 194.388 200.355,194.203 199.545,193.963 198.926 C 193.722 198.307,193.287 196.720,192.995 195.400 C 192.703 194.080,192.449 193.460,192.432 194.022 M241.993 195.072 C 241.093 197.407,241.095 197.529,242.007 195.872 C 242.470 195.031,242.788 194.164,242.715 193.944 C 242.641 193.724,242.316 194.231,241.993 195.072 M189.122 195.400 C 188.986 196.060,188.766 197.050,188.633 197.600 C 188.469 198.280,188.592 198.169,189.017 197.251 C 189.361 196.508,189.581 195.518,189.506 195.051 C 189.396 194.361,189.323 194.427,189.122 195.400 M210.822 197.815 C 210.810 198.044,211.154 199.214,211.586 200.415 C 212.018 201.617,212.368 202.240,212.363 201.800 C 212.355 200.960,210.861 197.097,210.822 197.815 M170.700 201.966 C 169.755 205.205,169.848 206.002,170.821 203.000 C 171.248 201.680,171.554 200.367,171.499 200.083 C 171.445 199.799,171.085 200.646,170.700 201.966 M162.846 200.200 C 162.835 200.420,163.191 201.590,163.636 202.800 C 164.128 204.136,164.366 204.506,164.241 203.743 C 164.027 202.423,162.879 199.510,162.846 200.200 M142.026 202.000 C 142.033 202.587,143.550 205.649,143.583 205.144 C 143.592 205.003,143.244 204.103,142.809 203.144 C 142.374 202.185,142.021 201.670,142.026 202.000 M239.265 204.617 C 238.595 206.088,238.723 206.402,239.447 205.065 C 239.786 204.440,239.988 203.854,239.896 203.763 C 239.805 203.671,239.521 204.056,239.265 204.617 M218.688 206.270 C 217.745 208.901,217.849 209.484,218.818 207.000 C 219.248 205.900,219.550 204.851,219.490 204.670 C 219.429 204.488,219.068 205.208,218.688 206.270 M253.410 206.780 C 252.533 208.476,252.661 208.833,253.596 207.300 L 254.388 206.000 272.114 206.000 C 285.729 206.000,289.970 206.116,290.401 206.500 C 290.878 206.925,290.882 206.896,290.432 206.300 C 289.941 205.652,288.579 205.600,271.961 205.600 L 254.021 205.600 253.410 206.780 M195.227 208.040 C 195.196 208.777,196.024 211.309,196.229 211.104 C 196.304 211.029,196.115 210.165,195.809 209.184 C 195.504 208.203,195.241 207.688,195.227 208.040 M291.199 216.081 C 291.090 220.635,291.139 224.222,291.309 224.052 C 291.478 223.882,291.568 220.156,291.508 215.771 L 291.398 207.800 291.199 216.081 M186.091 209.700 C 185.410 211.584,185.504 212.094,186.226 210.430 C 186.553 209.677,186.766 208.899,186.701 208.702 C 186.635 208.505,186.360 208.954,186.091 209.700 M144.409 210.340 C 144.398 210.999,145.644 213.690,145.859 213.474 C 145.945 213.389,145.655 212.527,145.216 211.560 C 144.777 210.592,144.414 210.043,144.409 210.340 M237.646 210.922 C 237.621 211.319,237.228 212.462,236.772 213.461 C 236.317 214.460,236.022 215.356,236.118 215.451 C 236.436 215.769,238.050 211.551,237.870 210.871 C 237.715 210.285,237.687 210.292,237.646 210.922 M213.600 211.013 C 213.600 211.130,214.152 212.657,214.826 214.406 C 216.007 217.468,216.800 218.693,216.800 217.457 C 216.800 217.132,216.650 216.807,216.466 216.733 C 216.282 216.660,215.636 215.295,215.031 213.700 C 214.068 211.163,213.600 210.284,213.600 211.013 M165.617 212.352 C 165.582 213.497,168.328 216.057,168.616 215.149 C 168.758 214.704,168.767 214.233,168.637 214.103 C 168.506 213.973,168.400 214.107,168.400 214.400 C 168.400 214.693,167.777 214.228,167.017 213.367 C 166.256 212.505,165.626 212.048,165.617 212.352 M100.985 232.200 C 100.985 242.980,101.037 247.333,101.100 241.872 C 101.163 236.412,101.163 227.592,101.100 222.272 C 101.037 216.953,100.985 221.420,100.985 232.200 M184.893 215.600 C 184.893 216.370,184.975 216.685,185.076 216.300 C 185.176 215.915,185.176 215.285,185.076 214.900 C 184.975 214.515,184.893 214.830,184.893 215.600 M146.829 218.600 C 146.831 219.040,147.285 220.390,147.838 221.600 C 148.952 224.038,148.866 223.368,147.632 220.000 C 147.189 218.790,146.827 218.160,146.829 218.600 M183.486 222.094 C 182.530 225.127,182.650 225.915,183.633 223.057 C 184.076 221.769,184.378 220.535,184.305 220.316 C 184.232 220.096,183.864 220.896,183.486 222.094 M234.300 222.111 C 233.340 224.438,233.442 224.998,234.439 222.873 C 234.884 221.923,235.193 220.981,235.124 220.780 C 235.056 220.578,234.685 221.178,234.300 222.111 M198.016 221.454 C 198.007 221.704,198.263 222.514,198.584 223.254 C 198.906 223.994,199.176 224.396,199.184 224.146 C 199.193 223.896,198.937 223.086,198.616 222.346 C 198.294 221.606,198.024 221.204,198.016 221.454 M252.854 223.251 C 252.824 223.830,253.114 224.548,253.500 224.851 C 254.109 225.329,254.140 225.322,253.738 224.800 C 253.484 224.470,253.194 223.750,253.093 223.200 L 252.909 222.200 252.854 223.251 M199.693 228.400 C 199.693 229.170,199.775 229.485,199.876 229.100 C 199.976 228.715,199.976 228.085,199.876 227.700 C 199.775 227.315,199.693 227.630,199.693 228.400 M149.626 228.800 C 149.633 229.387,151.150 232.449,151.183 231.944 C 151.192 231.803,150.844 230.903,150.409 229.944 C 149.974 228.985,149.621 228.470,149.626 228.800 M232.159 230.075 C 231.917 230.804,231.591 231.760,231.436 232.200 C 231.280 232.640,231.534 232.312,232.000 231.472 C 232.467 230.632,232.792 229.675,232.724 229.347 C 232.656 229.018,232.402 229.346,232.159 230.075 M181.510 232.600 C 181.370 233.260,181.151 234.160,181.022 234.600 C 180.894 235.040,181.070 234.794,181.414 234.053 C 181.759 233.312,181.978 232.412,181.903 232.053 C 181.823 231.675,181.657 231.906,181.510 232.600 M200.444 233.200 C 200.434 233.530,200.774 234.790,201.200 236.000 C 201.626 237.210,201.966 237.840,201.956 237.400 C 201.934 236.425,200.469 232.356,200.444 233.200 M152.016 237.122 C 152.007 237.409,152.337 238.399,152.748 239.322 C 153.160 240.245,153.596 241.270,153.717 241.600 C 153.912 242.133,153.939 242.133,153.952 241.600 C 153.961 241.270,153.532 240.010,153.000 238.800 C 152.468 237.590,152.025 236.835,152.016 237.122 M229.072 240.619 C 228.702 241.393,228.404 242.246,228.409 242.514 C 228.414 242.781,228.777 242.208,229.216 241.240 C 230.167 239.144,230.039 238.591,229.072 240.619 M202.827 244.840 C 202.796 245.577,203.624 248.109,203.829 247.904 C 203.904 247.829,203.715 246.965,203.409 245.984 C 203.104 245.003,202.841 244.488,202.827 244.840 M178.491 246.500 C 177.810 248.384,177.904 248.894,178.626 247.230 C 178.953 246.477,179.166 245.699,179.101 245.502 C 179.035 245.305,178.760 245.754,178.491 246.500 M154.817 246.856 C 154.808 246.997,155.156 247.897,155.591 248.856 C 156.026 249.815,156.379 250.330,156.374 250.000 C 156.367 249.413,154.850 246.351,154.817 246.856 M226.793 249.072 C 225.893 251.407,225.895 251.529,226.807 249.872 C 227.270 249.031,227.588 248.164,227.515 247.944 C 227.441 247.724,227.116 248.231,226.793 249.072 M156.432 251.238 C 156.414 251.589,156.805 252.219,157.300 252.638 C 158.192 253.394,158.194 253.393,157.552 252.600 C 157.196 252.160,156.805 251.530,156.684 251.200 C 156.497 250.691,156.458 250.696,156.432 251.238 " stroke="none" fill="#648c94" fill-rule="evenodd"></path></g></svg>